<svg style="" width="26.625000" height="26.625000" version="1.1" xmlns="http://www.w3.org/2000/svg">
<path d="M13.312500 -0.000000 C5.937500 -0.000000 0.000000 5.937500 0.000000 13.312500 C0.000000 20.687500 5.937500 26.625000 13.312500 26.625000 C20.687500 26.625000 26.625000 20.687500 26.625000 13.312500 C26.625000 5.937500 20.687500 -0.000000 13.312500 -0.000000 Z M13.312500 5.312500 C15.875000 5.312500 18.000000 7.375000 18.000000 10.000000 C18.000000 12.562500 15.875000 14.625000 13.312500 14.625000 C10.750000 14.625000 8.625000 12.562500 8.625000 10.000000 C8.625000 7.375000 10.750000 5.312500 13.312500 5.312500 Z M13.312500 24.000000 C10.625000 24.000000 7.375000 22.875000 5.125000 20.125000 C7.375000 18.375000 10.250000 17.312500 13.312500 17.312500 C16.375000 17.312500 19.250000 18.375000 21.500000 20.125000 C19.250000 22.875000 16.000000 24.000000 13.312500 24.000000 Z M29.312500 29.312500" style="fill:black"/>
</svg>