<svg width="32" height="32" viewBox="0 0 32 32" fill="none" xmlns="http://www.w3.org/2000/svg">
<path id="Vector" d="M16 0C13.8017 0 11.7283 0.427165 9.77986 1.28151C7.83137 2.11072 6.13272 3.25402 4.68384 4.71143C3.23497 6.16883 2.09836 7.87749 1.274 9.83746C0.424664 11.7974 0 13.883 0 16.0942C0 18.1044 0.349724 20.0016 1.04918 21.7856C1.74864 23.5948 2.69789 25.203 3.89696 26.6101C5.09602 28.0173 6.5199 29.1857 8.16862 30.1154C9.81734 31.0452 11.5909 31.6733 13.4895 32V20.7303H9.44262V16.0942H13.4895V12.5512C13.4895 10.541 14.039 8.99569 15.1382 7.91519C16.2373 6.8347 17.7112 6.29446 19.5597 6.29446C20.434 6.29446 21.2459 6.34472 21.9953 6.44523C22.7447 6.54574 23.1194 6.596 23.1194 6.596V10.5536H21.096C20.0968 10.5536 19.4161 10.8174 19.0539 11.3451C18.6916 11.8728 18.5105 12.4507 18.5105 13.0789V16.0942H22.9321L22.2201 20.7303H18.5105V31.9623C20.4091 31.6608 22.1827 31.0452 23.8314 30.1154C25.4801 29.1857 26.9102 28.0173 28.1218 26.6101C29.3333 25.203 30.2763 23.5948 30.9508 21.7856C31.6503 20.0016 32 18.1044 32 16.0942C32 13.883 31.5753 11.7974 30.726 9.83746C29.9016 7.87749 28.765 6.16883 27.3162 4.71143C25.8673 3.25402 24.1686 2.11072 22.2201 1.28151C20.2717 0.427165 18.1983 0 16 0Z" fill="#FBFAF8"/>
</svg>
