<svg width="116" height="118" viewBox="0 0 116 118" fill="none" xmlns="http://www.w3.org/2000/svg">
<g id="handshake 3">
<path id="Vector" d="M113.583 26.6191L101.845 3.11133C101.385 2.18945 100.714 1.44043 99.8314 0.864258C98.9491 0.288082 97.9709 0 96.8968 0C96.4365 0 95.9954 0.0576172 95.5734 0.172852C95.1515 0.288086 94.7487 0.422525 94.3651 0.576172L82.3968 6.68359L57.5397 0.115234C57.463 0.0384127 57.3862 0 57.3095 0C57.2328 0 57.1561 0 57.0794 0C57.0026 0 56.9259 0 56.8492 0C56.7725 0 56.6958 0.0384127 56.619 0.115234L31.7619 6.68359L19.7937 0.576172C19.4101 0.422525 19.0073 0.288086 18.5853 0.172852C18.1634 0.0576172 17.7222 0 17.2619 0C16.1878 0 15.2097 0.288082 14.3274 0.864258C13.4451 1.44043 12.7738 2.15104 12.3135 2.99609V3.11133L0.575397 26.6191C0.421956 26.9264 0.287698 27.2913 0.172619 27.7139C0.0575397 28.1364 0 28.5781 0 29.0391C0 30.1146 0.287695 31.0941 0.863095 31.9775C1.4385 32.861 2.14814 33.5332 2.99206 33.9941H3.10714L15.6508 40.332L41.3135 58.6543C41.3902 58.7311 41.4861 58.7887 41.6012 58.8271C41.7163 58.8656 41.8122 58.8848 41.8889 58.8848V59L71.3492 66.375C71.4259 66.375 71.5026 66.375 71.5794 66.375C71.6561 66.375 71.7328 66.375 71.8095 66.375C72.0397 66.375 72.2698 66.3366 72.5 66.2598C72.7302 66.1829 72.922 66.0677 73.0754 65.9141L98.623 40.2168L111.052 33.9941C111.972 33.5332 112.72 32.861 113.296 31.9775C113.871 31.0941 114.159 30.1146 114.159 29.0391C114.159 28.6549 114.101 28.2516 113.986 27.8291C113.871 27.4066 113.737 27.0033 113.583 26.6191ZM90.1071 43.6738L72.9603 29.8457C72.8069 29.7689 72.6343 29.6921 72.4425 29.6152C72.2507 29.5384 72.0397 29.5 71.8095 29.5C71.5794 29.5 71.3492 29.5384 71.119 29.6152C70.8889 29.6921 70.6971 29.8457 70.5436 30.0762C66.0172 34.5319 61.4332 36.779 56.7917 36.8174C52.1501 36.8558 48.2566 35.8379 45.1111 33.7637C44.881 33.61 44.6892 33.418 44.5357 33.1875C44.3823 32.957 44.2672 32.6882 44.1905 32.3809C44.1905 32.3809 44.1905 32.3617 44.1905 32.3232C44.1905 32.2848 44.1905 32.2656 44.1905 32.2656C44.1905 31.9583 44.248 31.7087 44.3631 31.5166C44.4782 31.3245 44.6124 31.1517 44.7659 30.998L65.1349 11.0625H81.7064L95.4008 38.373L90.1071 43.6738ZM3.79762 29.6152C3.7209 29.5384 3.68254 29.4616 3.68254 29.3848C3.68254 29.3079 3.68254 29.1927 3.68254 29.0391C3.68254 28.8854 3.70172 28.751 3.74008 28.6357C3.77844 28.5205 3.83598 28.3861 3.9127 28.2324L15.6508 4.72461C15.8042 4.41732 16.0344 4.16765 16.3413 3.97559C16.6482 3.78353 16.955 3.6875 17.2619 3.6875C17.4153 3.6875 17.5688 3.7067 17.7222 3.74512C17.8757 3.78353 17.9907 3.84115 18.0675 3.91797L29.1151 9.44922L15.7659 36.2988L4.71825 30.7676C4.4881 30.6139 4.2963 30.4411 4.14286 30.249C3.98942 30.057 3.87434 29.8457 3.79762 29.6152ZM71.2341 62.457L43.1548 55.4277L18.873 38.1426L32.9127 10.1406L57.0794 3.80273L70.7738 7.375H64.4444C64.2143 7.375 63.9841 7.41341 63.754 7.49023C63.5238 7.56706 63.332 7.7207 63.1786 7.95117L42.119 28.3477C41.6587 28.8086 41.2751 29.3848 40.9683 30.0762C40.6614 30.7676 40.5079 31.4974 40.5079 32.2656C40.5079 33.2643 40.7381 34.167 41.1984 34.9736C41.6587 35.7803 42.2725 36.4141 43.0397 36.875C47.6429 39.7943 52.5337 40.985 57.7123 40.4473C62.8909 39.9095 67.6283 37.6817 71.9246 33.7637L87.4603 46.209L71.2341 62.457ZM110.361 29.6152C110.284 29.8457 110.169 30.057 110.016 30.249C109.862 30.4411 109.671 30.6139 109.44 30.7676L98.3929 36.2988L85.0436 9.44922L96.0913 3.91797C96.168 3.84115 96.2831 3.78353 96.4365 3.74512C96.59 3.7067 96.7434 3.6875 96.8968 3.6875C97.2037 3.6875 97.5106 3.78353 97.8175 3.97559C98.1243 4.16765 98.3545 4.41732 98.5079 4.72461L110.246 28.2324C110.323 28.3861 110.38 28.5205 110.419 28.6357C110.457 28.751 110.476 28.8854 110.476 29.0391C110.476 29.1927 110.476 29.3079 110.476 29.3848C110.476 29.4616 110.438 29.5384 110.361 29.6152ZM57.0794 76.0547C56.9259 76.4388 56.6958 76.7653 56.3889 77.0342C56.082 77.3031 55.6984 77.4375 55.2381 77.4375C55.1614 77.4375 55.0847 77.4375 55.0079 77.4375C54.9312 77.4375 54.8545 77.3991 54.7778 77.3223V77.4375L35.6746 72.5977C35.5212 72.5208 35.3869 72.4632 35.2718 72.4248C35.1567 72.3864 35.0608 72.3288 34.9841 72.252L22.9008 63.6094C22.6706 63.4557 22.4788 63.2445 22.3254 62.9756C22.172 62.7067 22.0952 62.4186 22.0952 62.1113C22.0952 61.5736 22.2679 61.1318 22.6131 60.7861C22.9583 60.4404 23.3995 60.2676 23.9365 60.2676C24.1667 60.2676 24.3585 60.306 24.5119 60.3828C24.6653 60.4596 24.8188 60.5365 24.9722 60.6133L36.8254 69.0254L55.6984 73.75C56.082 73.9036 56.4081 74.1341 56.6766 74.4414C56.9451 74.7487 57.0794 75.1328 57.0794 75.5938C57.0794 75.6706 57.0794 75.7474 57.0794 75.8242C57.0794 75.901 57.0794 75.9779 57.0794 76.0547Z" fill="#FBFAF8"/>
</g>
</svg>
