<svg width="87" height="94" viewBox="0 0 87 94" fill="none" xmlns="http://www.w3.org/2000/svg">
<g id="heart 1">
<path id="Vector" d="M58.2458 0C54.3135 0 50.7193 0.88736 47.4629 2.66211C44.2066 4.43686 41.6568 6.85415 39.8136 9.91406C37.9703 6.85415 35.4206 4.43686 32.1642 2.66211C28.9078 0.88736 25.3136 0 21.3814 0C18.4322 0 15.6674 0.550775 13.0869 1.65234C10.5063 2.81511 8.24842 4.36034 6.31303 6.28809C4.37764 8.21583 2.82628 10.4648 1.6589 13.0352C0.55296 15.6055 0 18.3594 0 21.2969C0 23.9284 0.399359 26.5905 1.19809 29.2832C2.05827 31.9147 3.30243 34.5921 4.93061 37.3154C6.5588 40.0387 8.60168 42.8079 11.0593 45.623C13.517 48.377 16.4046 51.1308 19.7225 53.8848C22.5487 56.3327 25.5439 58.6582 28.7082 60.8613C31.8724 63.0645 35.1441 65.1452 38.5233 67.1035L39.0763 67.3789C39.1992 67.4401 39.322 67.486 39.4449 67.5166C39.5678 67.5472 39.6907 67.5625 39.8136 67.5625C39.9364 67.5625 40.0593 67.5472 40.1822 67.5166C40.3051 67.486 40.428 67.4401 40.5508 67.3789C44.2373 65.2982 47.678 63.141 50.8729 60.9072C54.0678 58.6735 57.1398 56.3021 60.089 53.793L59.9047 53.8848C63.2225 51.1308 66.1102 48.377 68.5678 45.623C71.0254 42.8079 73.0683 40.0387 74.6965 37.3154C76.3247 34.5921 77.5689 31.9147 78.429 29.2832C79.2278 26.5905 79.6271 23.9284 79.6271 21.2969C79.6271 18.3594 79.0742 15.6055 77.9682 13.0352C76.8008 10.4648 75.2495 8.21583 73.3141 6.28809C71.3787 4.36034 69.1208 2.81511 66.5403 1.65234C63.9597 0.550775 61.1949 0 58.2458 0ZM39.8136 64.4414C38.5233 63.707 35.8814 62.0241 31.8877 59.3926C27.8941 56.8223 23.7468 53.6094 19.446 49.7539C15.1451 45.8984 11.3358 41.5228 8.01801 36.627C4.63875 31.7311 2.94915 26.6211 2.94915 21.2969C2.94915 18.7877 3.44067 16.4011 4.42373 14.1367C5.40679 11.9336 6.72775 10.0059 8.38665 8.35352C10.0456 6.70116 11.9809 5.38542 14.1928 4.40625C16.4661 3.42708 18.8623 2.9375 21.3814 2.9375C25.2521 2.9375 28.7235 3.90136 31.7956 5.8291C34.8676 7.75684 37.0794 10.4036 38.4311 13.7695C38.554 14.0143 38.7383 14.2285 38.9841 14.4121C39.2299 14.5957 39.5064 14.6875 39.8136 14.6875C40.1208 14.6875 40.3972 14.5957 40.643 14.4121C40.8888 14.2285 41.0731 14.0143 41.196 13.7695C42.5477 10.4036 44.7595 7.75684 47.8316 5.8291C50.9036 3.90136 54.375 2.9375 58.2458 2.9375C60.7648 2.9375 63.161 3.42708 65.4343 4.40625C67.6462 5.38542 69.5816 6.70116 71.2405 8.35352C72.8994 10.0059 74.2203 11.9336 75.2034 14.1367C76.1864 16.4011 76.678 18.7877 76.678 21.2969C76.678 26.6211 74.9884 31.7311 71.6091 36.627C68.2913 41.5228 64.482 45.8984 60.1811 49.7539C55.8803 53.6094 51.7331 56.8223 47.7394 59.3926C43.7457 62.0241 41.1038 63.707 39.8136 64.4414Z" fill="#FBFAF8"/>
</g>
</svg>
