<svg width="32" height="32" viewBox="0 0 32 32" fill="none" xmlns="http://www.w3.org/2000/svg">
<g id="instagram 1" clip-path="url(#clip0_9_37)">
<path id="Vector" d="M16 7.77143C14.8611 7.77143 13.7917 7.97922 12.7917 8.3948C11.7917 8.8381 10.9236 9.42684 10.1875 10.161C9.45139 10.8952 8.86111 11.761 8.41667 12.7584C8 13.7558 7.79167 14.8225 7.79167 15.9584C7.79167 17.0944 8 18.161 8.41667 19.1584C8.86111 20.1558 9.45139 21.0216 10.1875 21.7558C10.9236 22.49 11.7917 23.0788 12.7917 23.5221C13.7917 23.9377 14.8611 24.1455 16 24.1455C17.1389 24.1455 18.2083 23.9377 19.2083 23.5221C20.2083 23.0788 21.0764 22.49 21.8125 21.7558C22.5486 21.0216 23.1389 20.1558 23.5833 19.1584C24 18.161 24.2083 17.0944 24.2083 15.9584C24.2083 14.8225 24 13.7558 23.5833 12.7584C23.1389 11.761 22.5486 10.8952 21.8125 10.161C21.0764 9.42684 20.2083 8.8381 19.2083 8.3948C18.2083 7.97922 17.1389 7.77143 16 7.77143ZM16 21.2779C14.5278 21.2779 13.2708 20.7584 12.2292 19.7195C11.1875 18.6805 10.6667 17.4268 10.6667 15.9584C10.6667 14.49 11.1875 13.2364 12.2292 12.1974C13.2708 11.1584 14.5278 10.639 16 10.639C17.4722 10.639 18.7292 11.1584 19.7708 12.1974C20.8125 13.2364 21.3333 14.49 21.3333 15.9584C21.3333 17.4268 20.8125 18.6805 19.7708 19.7195C18.7292 20.7584 17.4722 21.2779 16 21.2779ZM26.4583 7.43896C26.4583 7.99308 26.2708 8.45021 25.8958 8.81039C25.5208 9.17056 25.0694 9.35065 24.5417 9.35065C24.0139 9.35065 23.5625 9.17056 23.1875 8.81039C22.8125 8.45021 22.625 7.99308 22.625 7.43896C22.625 6.91255 22.8125 6.46927 23.1875 6.10909C23.5625 5.74892 24.0139 5.56883 24.5417 5.56883C25.0694 5.56883 25.5208 5.74892 25.8958 6.10909C26.2708 6.46927 26.4583 6.91255 26.4583 7.43896ZM31.1667 5.52727C30.75 4.44675 30.1389 3.50477 29.3333 2.7013C28.5278 1.89783 27.5972 1.28831 26.5417 0.872727L26.5 0.831169C25.9167 0.609522 25.2986 0.436364 24.6458 0.311688C23.9931 0.187013 23.3194 0.124675 22.625 0.124675H22.5833C21.75 0.0692636 20.9861 0.0346325 20.2917 0.0207792C19.5972 0.00692596 18.1667 0 16 0C13.8333 0 12.4028 0.00692596 11.7083 0.0207792C11.0139 0.0346325 10.25 0.0692636 9.41667 0.124675C8.72222 0.124675 8.04167 0.193939 7.375 0.332468C6.70833 0.470996 6.06945 0.65108 5.45833 0.872727L5.54167 0.831169C4.45833 1.27446 3.51389 1.89783 2.70833 2.7013C1.90277 3.50477 1.29167 4.41904 0.875 5.44416L0.833333 5.52727C0.611111 6.08139 0.4375 6.69091 0.3125 7.35584C0.1875 8.02078 0.111111 8.69956 0.0833333 9.39221C0.055556 10.2511 0.0347227 11.0199 0.0208333 11.6987C0.006944 12.3775 0 13.7974 0 15.9584C0 18.1195 0.006944 19.5463 0.0208333 20.239C0.0347227 20.9316 0.055556 21.7074 0.0833333 22.5662C0.111111 23.2312 0.1875 23.8822 0.3125 24.5195C0.4375 25.1567 0.611111 25.7939 0.833333 26.4312C1.27778 27.5117 1.90277 28.4537 2.70833 29.2571C3.51389 30.0606 4.43055 30.6701 5.45833 31.0857H5.54167C6.09723 31.3351 6.70139 31.529 7.35417 31.6675C8.00695 31.8061 8.68055 31.8753 9.375 31.8753H9.41667C10.2778 31.9307 11.0486 31.9654 11.7292 31.9792C12.4097 31.9931 13.8333 32 16 32C18.1667 32 19.5972 31.9931 20.2917 31.9792C20.9861 31.9654 21.7639 31.9307 22.625 31.8753C23.3194 31.8753 24 31.8061 24.6667 31.6675C25.3333 31.529 25.9722 31.3489 26.5833 31.1273L26.5 31.1688C27.5833 30.7255 28.5278 30.1022 29.3333 29.2987C30.1389 28.4952 30.75 27.581 31.1667 26.5558V26.4727C31.4167 25.8632 31.6042 25.2329 31.7292 24.5818C31.8542 23.9307 31.9167 23.2727 31.9167 22.6078C31.9444 21.7489 31.9653 20.9801 31.9792 20.3013C31.9931 19.6225 32 18.2026 32 16.0416C32 13.8528 32 12.4191 32 11.7403C32 11.0615 31.9722 10.2926 31.9167 9.43377C31.9167 8.74112 31.8472 8.05541 31.7083 7.37662C31.5694 6.69783 31.375 6.05368 31.125 5.44416L31.1667 5.52727ZM29 22.4C29 22.9541 28.9514 23.4874 28.8542 24C28.7569 24.5126 28.6111 25.0043 28.4167 25.4753L28.4583 25.3922C28.1806 26.1126 27.7778 26.729 27.25 27.2416C26.7222 27.7541 26.125 28.1489 25.4583 28.426H25.4167C24.9722 28.6199 24.5 28.7584 24 28.8416C23.5 28.9247 22.9861 28.9801 22.4583 29.0078C21.5972 29.0355 20.8403 29.0563 20.1875 29.0701C19.5347 29.084 18.125 29.0909 15.9583 29.0909C13.7917 29.0909 12.3819 29.084 11.7292 29.0701C11.0764 29.0563 10.3194 29.0355 9.45833 29.0078C8.90277 28.9801 8.375 28.9177 7.875 28.8208C7.375 28.7238 6.88889 28.5922 6.41667 28.426H6.45833C5.76389 28.1766 5.15278 27.7887 4.625 27.2623C4.09722 26.7359 3.69445 26.1264 3.41667 25.4338V25.3922C3.25 24.9766 3.11806 24.5195 3.02083 24.0208C2.92361 23.5221 2.875 22.9957 2.875 22.4416C2.81944 21.6104 2.79167 20.8623 2.79167 20.1974C2.79167 19.5325 2.79167 18.1195 2.79167 15.9584C2.79167 13.7974 2.79167 12.3913 2.79167 11.7403C2.79167 11.0892 2.81944 10.3342 2.875 9.47532C2.875 8.94892 2.92361 8.42944 3.02083 7.91688C3.11806 7.40433 3.26389 6.91256 3.45833 6.44156L3.41667 6.48312C3.69445 5.79047 4.09722 5.18095 4.625 4.65455C5.15278 4.12814 5.76389 3.72641 6.45833 3.44935C6.90278 3.28312 7.375 3.15152 7.875 3.05455C8.375 2.95758 8.90277 2.90909 9.45833 2.90909C10.2917 2.88139 11.0417 2.86061 11.7083 2.84675C12.375 2.8329 13.7917 2.82597 15.9583 2.82597C18.125 2.82597 19.5347 2.82597 20.1875 2.82597C20.8403 2.82597 21.5972 2.85368 22.4583 2.90909C22.9861 2.90909 23.5 2.95758 24 3.05455C24.5 3.15152 24.9861 3.29697 25.4583 3.49091L25.4167 3.44935C26.1111 3.72641 26.7222 4.12814 27.25 4.65455C27.7778 5.18095 28.1806 5.79047 28.4583 6.48312C28.625 6.92641 28.7569 7.3974 28.8542 7.8961C28.9514 8.39481 29 8.90736 29 9.43377V9.47532C29.0278 10.3065 29.0486 11.0545 29.0625 11.7195C29.0764 12.3844 29.0833 13.7974 29.0833 15.9584C29.0833 18.1195 29.0833 19.5255 29.0833 20.1766C29.0833 20.8277 29.0694 21.5688 29.0417 22.4H29Z" fill="#FBFAF8"/>
</g>
<defs>
<clipPath id="clip0_9_37">
<rect width="32" height="32" fill="white"/>
</clipPath>
</defs>
</svg>
