<svg style="" width="27.428571" height="32.000000" version="1.1" xmlns="http://www.w3.org/2000/svg">
<path d="M11.678571 19.250000 C11.666667 19.285714 11.592263 19.282738 11.455357 19.241071 C11.318452 19.199405 11.130954 19.130953 10.892857 19.035714 L10.535714 18.875000 C10.011902 18.636904 9.494050 18.345240 8.982143 18.000000 C8.898809 17.940476 8.654764 17.752978 8.250000 17.437500 C7.845236 17.122022 7.619048 16.952381 7.571429 16.928571 C6.773806 18.154768 5.976194 19.232138 5.178571 20.160714 C4.214281 21.291672 3.589287 21.946428 3.303571 22.125000 C3.255952 22.148810 3.139882 22.172619 2.955357 22.196429 C2.770832 22.220238 2.660714 22.220238 2.625000 22.196429 C2.696429 22.148809 3.184519 21.601196 4.089286 20.553571 C4.339287 20.267856 4.848210 19.583339 5.616071 18.500000 C6.383932 17.416661 6.851190 16.714287 7.017857 16.392857 C7.220239 16.035713 7.523807 15.449409 7.928571 14.633929 C8.333335 13.818448 8.547619 13.357143 8.571429 13.250000 C8.476190 13.238095 7.821435 13.434522 6.607143 13.839286 C6.511904 13.863095 6.348215 13.907738 6.116071 13.973214 C5.883927 14.038691 5.678572 14.095238 5.500000 14.142857 C5.321428 14.190476 5.220238 14.220238 5.196429 14.232143 C5.172619 14.255953 5.160714 14.318452 5.160714 14.419643 C5.160714 14.520834 5.154762 14.577381 5.142857 14.589286 C5.083333 14.708334 4.898811 14.797619 4.589286 14.857143 C4.315475 14.940477 4.035716 14.940477 3.750000 14.857143 C3.535713 14.809524 3.369048 14.684525 3.250000 14.482143 C3.202381 14.410714 3.172619 14.273811 3.160714 14.071429 C3.232143 14.047619 3.377975 14.017857 3.598214 13.982143 C3.818453 13.946428 3.994047 13.910714 4.125000 13.875000 C4.815480 13.684523 5.440473 13.494049 6.000000 13.303571 C7.190482 12.886903 7.797619 12.678571 7.821429 12.678571 C7.940477 12.654762 8.196427 12.538692 8.589286 12.330357 C8.982145 12.122023 9.244047 11.994048 9.375000 11.946429 C9.482143 11.910714 9.610118 11.863096 9.758929 11.803571 C9.907739 11.744047 9.994047 11.711310 10.017857 11.705357 C10.041667 11.699405 10.077381 11.702381 10.125000 11.714286 C10.148810 11.857144 10.142857 12.053570 10.107143 12.303571 C10.107143 12.327381 10.032739 12.488094 9.883929 12.785714 C9.735118 13.083335 9.577382 13.401784 9.410714 13.741071 C9.244047 14.080359 9.142857 14.279762 9.107143 14.339286 C8.809522 14.934527 8.351194 15.714281 7.732143 16.678571 L8.875000 17.178571 C9.017858 17.250000 9.461306 17.440475 10.205357 17.750000 C10.949408 18.059525 11.351190 18.226190 11.410714 18.250000 C11.458334 18.261905 11.520833 18.413689 11.598214 18.705357 C11.675596 18.997025 11.702381 19.178571 11.678571 19.250000 Z M8.017857 10.571429 C8.053572 10.750001 8.029762 10.916666 7.946429 11.071429 C7.803571 11.345239 7.505955 11.571428 7.053571 11.750000 C6.696427 11.892858 6.339287 11.964286 5.982143 11.964286 C5.672617 11.928571 5.380954 11.773811 5.107143 11.500000 C4.940475 11.321428 4.833334 11.077383 4.785714 10.767857 L4.803571 10.714286 C4.839286 10.750000 4.955356 10.779762 5.151786 10.803571 C5.348215 10.827381 5.505952 10.827381 5.625000 10.803571 C5.744048 10.779762 6.089283 10.684525 6.660714 10.517857 C7.089288 10.374999 7.416666 10.291667 7.642857 10.267857 C7.845239 10.267857 7.970238 10.369047 8.017857 10.571429 Z M20.482143 12.875000 L21.607143 16.928571 L19.125000 16.178571 Z M0.696429 27.160714 L13.089286 23.017857 L13.089286 4.589286 L0.696429 8.750000 Z M22.857143 21.500000 L24.678571 22.053571 L21.446429 10.321429 L19.660714 9.767857 L15.803571 19.339286 L17.625000 19.892857 L18.428571 17.928571 L22.196429 19.089286 Z M13.875000 4.321429 L24.107143 7.607143 L24.107143 0.821429 Z M19.428571 27.946429 L22.250000 28.178571 L21.285714 31.035714 L20.571429 29.857143 C19.023802 30.845243 17.380961 31.488094 15.642857 31.785714 C14.952377 31.928572 14.410716 32.000000 14.017857 32.000000 L12.517857 32.000000 C11.577376 32.000000 10.389888 31.767859 8.955357 31.303571 C7.520826 30.839283 6.428575 30.333336 5.678571 29.785714 C5.583333 29.702381 5.535714 29.607143 5.535714 29.500000 C5.535714 29.404761 5.565476 29.324405 5.625000 29.258929 C5.684524 29.193452 5.761904 29.160714 5.857143 29.160714 C5.904762 29.160714 6.011904 29.205357 6.178571 29.294643 C6.345239 29.383929 6.526785 29.482142 6.723214 29.589286 C6.919644 29.696429 7.041666 29.761905 7.089286 29.785714 C7.958338 30.226193 8.907733 30.592260 9.937500 30.883929 C10.967267 31.175597 11.904758 31.321429 12.750000 31.321429 C13.880958 31.321429 14.874996 31.235120 15.732143 31.062500 C16.589290 30.889880 17.523804 30.589288 18.535714 30.160714 C18.714287 30.077381 18.895832 29.985120 19.080357 29.883929 C19.264882 29.782738 19.467261 29.669643 19.687500 29.544643 C19.907739 29.419642 20.077380 29.321429 20.196429 29.250000 Z M27.428571 8.678571 L27.428571 27.946429 L13.607143 23.553571 C13.440475 23.625000 11.208355 24.383921 6.910714 25.830357 C2.613074 27.276793 0.422619 28.000000 0.339286 28.000000 C0.184523 28.000000 0.077381 27.922620 0.017857 27.767857 C0.017857 27.755952 0.011905 27.738095 0.000000 27.714286 L0.000000 8.464286 C0.035714 8.357142 0.059524 8.297619 0.071429 8.285714 C0.130953 8.214285 0.249999 8.148810 0.428571 8.089286 C1.702387 7.660712 2.589283 7.363096 3.089286 7.196429 L3.089286 0.339286 L13.053571 3.875000 C13.077381 3.875000 14.032729 3.547622 15.919643 2.892857 C17.806557 2.238092 19.687491 1.592265 21.562500 0.955357 C23.437509 0.318449 24.398809 0.000000 24.446429 0.000000 C24.684525 0.000000 24.803571 0.124999 24.803571 0.375000 L24.803571 7.839286 Z M27.428571 27.428571" style="fill:black"/>
</svg>