<svg width="82" height="96" viewBox="0 0 82 96" fill="none" xmlns="http://www.w3.org/2000/svg">
<g id="leaf 3">
<path id="Vector" d="M68.5512 1.58388C68.489 1.20888 68.3333 0.896386 68.0843 0.646384C67.8352 0.396382 67.5239 0.240136 67.1503 0.177634C60.1769 -0.197369 53.5771 0.0213789 47.3508 0.833884C41.1868 1.58389 35.552 2.92763 30.4465 4.86513C25.3409 6.80265 20.8269 9.24012 16.9043 12.1776C13.044 15.1776 9.93092 18.6151 7.56492 22.4901C5.94608 25.1776 4.7631 27.9589 4.01594 30.8339C3.26879 33.7714 2.92635 36.7557 2.98861 39.787C3.05087 42.8183 3.54897 45.8964 4.48292 49.0214C5.41686 52.0839 6.7555 55.1776 8.49886 58.3026L0.46697 66.4589C0.342444 66.5839 0.233485 66.7401 0.140091 66.9276C0.046697 67.1151 0 67.3026 0 67.4901C0 67.9276 0.140091 68.287 0.420273 68.5683C0.700456 68.8495 1.05846 68.9901 1.49431 68.9901C1.68109 68.9901 1.86788 68.9433 2.05467 68.8495C2.24146 68.7558 2.39711 68.6464 2.52164 68.5214L10.6469 60.4589C13.8846 62.2714 17.1378 63.6464 20.4066 64.5839C23.6754 65.5214 26.8663 65.9901 29.9795 65.9901C33.0304 65.9901 35.9411 65.5839 38.7118 64.7714C41.4825 63.9589 44.0509 62.8026 46.4169 61.3026L46.3235 61.3964C50.1838 59.0214 53.6082 55.8964 56.5968 52.0214C59.5232 48.0839 61.9514 43.5527 63.8815 38.4276C65.8117 33.3026 67.1503 27.6464 67.8975 21.4589C68.7069 15.2089 68.9248 8.58392 68.5512 1.58388ZM44.7358 58.8651C42.3698 60.3026 39.9104 61.3651 37.3576 62.0526C34.8048 62.7401 32.1743 63.0526 29.4658 62.9901C26.7574 62.9276 24.0023 62.4901 21.2005 61.6776C18.3986 60.9276 15.5968 59.7714 12.795 58.2089L47.3508 23.5214C47.5376 23.3964 47.6621 23.2401 47.7244 23.0526C47.7866 22.8651 47.8178 22.6776 47.8178 22.4901C47.8178 22.0526 47.6777 21.6933 47.3975 21.412C47.1173 21.1308 46.7593 20.9901 46.3235 20.9901C46.1367 20.9901 45.9499 21.0214 45.7631 21.0839C45.5763 21.1464 45.4207 21.2714 45.2961 21.4589L10.7403 56.1464C9.18374 53.3339 8.00076 50.5214 7.19134 47.7089C6.44419 44.8964 6.03948 42.1308 5.97722 39.412C5.91496 36.6932 6.22627 34.0526 6.91116 31.4901C7.59606 28.9276 8.65451 26.4589 10.0866 24.0839C12.2658 20.4589 15.161 17.2714 18.7722 14.5214C22.3835 11.7714 26.5706 9.50577 31.3337 7.72451C36.0968 5.94325 41.3735 4.64639 47.164 3.83388C52.9545 3.02138 59.1184 2.77138 65.656 3.08388C65.9673 9.64642 65.7183 15.8339 64.9089 21.6464C64.0995 27.4589 62.8075 32.7557 61.033 37.537C59.2585 42.3183 57.0015 46.5214 54.262 50.1464C51.5224 53.7714 48.347 56.6776 44.7358 58.8651Z" fill="#FBFAF8"/>
</g>
</svg>
