<svg width="32" height="32" viewBox="0 0 32 32" fill="none" xmlns="http://www.w3.org/2000/svg">
<g id="linkedin plain 1">
<path id="Vector" d="M28.25 0H2.25C2.25 0 2.24479 0 2.23438 0C2.22396 0 2.21875 0 2.21875 0C1.61458 0 1.09375 0.21354 0.65625 0.640625C0.218748 1.06771 0 1.58333 0 2.1875V28.3125C0 28.9167 0.218748 29.4323 0.65625 29.8594C1.09375 30.2865 1.61458 30.5 2.21875 30.5C2.21875 30.5 2.22396 30.5 2.23438 30.5C2.24479 30.5 2.25 30.5 2.25 30.5H28.25C28.25 30.5 28.2604 30.5 28.2812 30.5C28.8854 30.5 29.4062 30.2865 29.8438 29.8594C30.2813 29.4323 30.5 28.9167 30.5 28.3125V2.1875C30.4792 1.58333 30.2552 1.06771 29.8281 0.640625C29.401 0.21354 28.8854 0 28.2812 0C28.2604 0 28.25 0 28.25 0ZM9.03125 26H4.5V11.4375H9.03125V26ZM6.78125 9.4375C6.05208 9.4375 5.43229 9.18229 4.92188 8.67188C4.41146 8.16146 4.15625 7.54167 4.15625 6.8125C4.15625 6.10416 4.41146 5.48959 4.92188 4.96875C5.43229 4.44791 6.05208 4.1875 6.78125 4.1875C7.51042 4.1875 8.13021 4.44791 8.64062 4.96875C9.15104 5.48959 9.40625 6.10416 9.40625 6.8125C9.40625 7.54167 9.15104 8.16146 8.64062 8.67188C8.13021 9.18229 7.51042 9.4375 6.78125 9.4375ZM26 26H21.4688V18.9062C21.4688 18.0729 21.3698 17.224 21.1719 16.3594C20.974 15.4948 20.2917 15.0625 19.125 15.0625C17.9583 15.0625 17.2135 15.4479 16.8906 16.2188C16.5677 16.9896 16.4062 17.8542 16.4062 18.8125V26H11.875V11.4375H16.2188V13.4375H16.2812C16.5938 12.8542 17.1094 12.3177 17.8281 11.8281C18.5469 11.3385 19.4583 11.0938 20.5625 11.0938C22.8542 11.0729 24.3333 11.7292 25 13.0625C25.6667 14.3958 26 16.0417 26 18V26Z" fill="#FBFAF8"/>
</g>
</svg>
