<svg style="" width="29.312500" height="29.468750" version="1.1" xmlns="http://www.w3.org/2000/svg">
<path d="M29.312500 1.312500 C29.312500 1.250000 29.307292 1.187500 29.296875 1.125000 C29.286458 1.062500 29.250000 1.000000 29.187500 0.937500 C29.187500 0.937500 29.187500 0.911459 29.187500 0.859375 C29.187500 0.807291 29.187500 0.781250 29.187500 0.781250 C29.187500 0.718750 29.161459 0.656250 29.109375 0.593750 C29.057291 0.531250 29.000000 0.468750 28.937500 0.406250 C28.854166 0.322916 28.781250 0.270833 28.718750 0.250000 C28.656250 0.229167 28.593750 0.187500 28.531250 0.125000 C28.531250 0.125000 28.505209 0.125000 28.453125 0.125000 C28.401041 0.125000 28.375000 0.125000 28.375000 0.125000 C28.312500 0.125000 28.250000 0.119792 28.187500 0.109375 C28.125000 0.098958 28.062500 0.062500 28.000000 -0.000000 C28.000000 0.062500 28.000000 0.098958 28.000000 0.109375 C28.000000 0.119792 28.000000 0.125000 28.000000 0.125000 C27.916666 0.125000 27.843750 0.130208 27.781250 0.140625 C27.718750 0.151042 27.656250 0.187500 27.593750 0.250000 L0.937500 9.593750 C0.666665 9.656250 0.442709 9.786457 0.265625 9.984375 C0.088541 10.182293 0.000000 10.447915 0.000000 10.781250 C0.000000 11.052085 0.062499 11.312499 0.187500 11.562500 C0.312501 11.812501 0.510415 11.999999 0.781250 12.125000 L12.250000 17.187500 L17.312500 28.656250 C17.458334 28.927085 17.630207 29.130208 17.828125 29.265625 C18.026043 29.401042 18.260415 29.468750 18.531250 29.468750 C18.531250 29.468750 18.531250 29.468750 18.531250 29.468750 C18.531250 29.468750 18.531250 29.468750 18.531250 29.468750 C18.802085 29.468750 19.052082 29.380209 19.281250 29.203125 C19.510418 29.026041 19.656250 28.802085 19.718750 28.531250 L29.062500 1.843750 C29.187501 1.781250 29.260417 1.713542 29.281250 1.640625 C29.302083 1.567708 29.312500 1.458334 29.312500 1.312500 C29.312500 1.395834 29.312500 1.437500 29.312500 1.437500 C29.312500 1.437500 29.312500 1.395834 29.312500 1.312500 Z M22.937500 4.656250 L13.062500 14.531250 L4.937500 10.937500 L22.937500 4.656250 Z M18.531250 24.531250 L14.937500 16.406250 L24.781250 6.531250 L18.531250 24.531250 Z M30.656250 28.125000" style="fill:black"/>
</svg>