<svg width="40" height="32" viewBox="0 0 40 32" fill="none" xmlns="http://www.w3.org/2000/svg">
<g id="youtube 1" clip-path="url(#clip0_9_43)">
<path id="Vector" d="M39.1569 5.0301C38.9383 4.06688 38.5168 3.22854 37.8923 2.51505C37.2678 1.80156 36.534 1.30212 35.6909 1.01672H35.644C34.8634 0.767 33.6144 0.570793 31.897 0.428094C30.1483 0.32107 28.3997 0.231885 26.6511 0.160535C24.9024 0.0891856 23.3568 0.0535117 22.0141 0.0535117C20.6713 0.0178378 20 0 20 0C20 0 19.3287 0.0178378 17.9859 0.0535117C16.6432 0.0535117 15.0976 0.0802676 13.3489 0.133779C11.6003 0.187291 9.85169 0.267559 8.10304 0.374582C6.38563 0.517281 5.13662 0.713488 4.35597 0.963211C3.48165 1.24861 2.73224 1.74804 2.10773 2.46154C1.48321 3.17503 1.06167 4.01337 0.843091 4.97659C0.405931 6.796 0.156129 9.08806 0.0936768 11.8528C0.0312251 14.6176 0 16 0 16C0 16 0.0312251 17.3913 0.0936768 20.1739C0.156129 22.9565 0.390318 25.2218 0.796253 26.9699C1.01483 27.9688 1.44418 28.825 2.08431 29.5385C2.72444 30.252 3.46604 30.7514 4.30913 31.0368C5.121 31.2508 6.38563 31.4292 8.10304 31.5719C9.82046 31.7146 11.5613 31.8216 13.3255 31.893C15.0898 31.9643 16.6432 32 17.9859 32C19.2974 32 19.9532 32 19.9532 32C19.9532 32 20.6245 32 21.9672 32C23.3099 32 24.8634 31.9732 26.6276 31.9197C28.3919 31.8662 30.1327 31.7681 31.8501 31.6254C33.5675 31.5184 34.8165 31.34 35.5972 31.0903C36.4715 30.8049 37.2209 30.3055 37.8454 29.592C38.4699 28.8785 38.9071 28.058 39.1569 27.1304V27.0769C39.5628 25.2932 39.8048 23.01 39.8829 20.2274C39.961 17.4448 40 16.0535 40 16.0535C40 16.0535 39.9688 14.6622 39.9063 11.8796C39.8439 9.09698 39.5941 6.81383 39.1569 5.0301ZM15.9719 22.8495L16.0187 9.1505L26.4169 16L15.9719 22.8495Z" fill="#FBFAF8"/>
</g>
<defs>
<clipPath id="clip0_9_43">
<rect width="40" height="32" fill="white"/>
</clipPath>
</defs>
</svg>
